<svg  id="Layer_1" data-name="Layer 1" xmlns="http://www.w3.org/2000/svg" viewBox="0 0 122.88 98.31"><defs><style>.cls-1{fill-rule:evenodd;}</style></defs><title>heatmap</title><path class="cls-1" d="M0,6A6,6,0,0,1,12,6V86.32h104.9a6,6,0,0,1,0,12H0V6ZM31.18,2.42a9.8,9.8,0,1,1-9.8,9.8,9.79,9.79,0,0,1,9.8-9.8Zm-.44,35.33a6.62,6.62,0,1,1-6.61,6.61,6.61,6.61,0,0,1,6.61-6.61Zm32-32.54a6.62,6.62,0,1,1-6.62,6.61,6.61,6.61,0,0,1,6.62-6.61ZM59.8,58.73A9.8,9.8,0,1,1,50,68.52a9.8,9.8,0,0,1,9.79-9.79Zm36.64,4.33a7.63,7.63,0,1,1-7.63,7.63,7.62,7.62,0,0,1,7.63-7.63ZM74.58,30.64a9.8,9.8,0,1,1-9.8,9.79,9.79,9.79,0,0,1,9.8-9.79ZM30.74,62.17a7.63,7.63,0,1,1-7.63,7.63,7.63,7.63,0,0,1,7.63-7.63Zm71.09-28.46a6.62,6.62,0,1,1-6.62,6.61,6.61,6.61,0,0,1,6.62-6.61Zm-52.2-7A6.6,6.6,0,1,1,43,33.3a6.59,6.59,0,0,1,6.59-6.59Zm48.94-20A6.62,6.62,0,1,1,92,13.34a6.61,6.61,0,0,1,6.61-6.61Z"/></svg>